<svg width="96" height="96" viewBox="0 0 96 96" fill="none" xmlns="http://www.w3.org/2000/svg">
<g clip-path="url(#clip0_117924_90)">
<path d="M76 28C76 23.6 72.4 20 68 20H56V28H68V38.6L54.08 56H40V36H24C15.16 36 8 43.16 8 52V64H16C16 70.64 21.36 76 28 76C34.64 76 40 70.64 40 64H57.92L76 41.4V28ZM28 68C25.8 68 24 66.2 24 64H32C32 66.2 30.2 68 28 68Z" fill="black"/>
<path d="M40 24H20V32H40V24Z" fill="black"/>
<path d="M76 52C69.36 52 64 57.36 64 64C64 70.64 69.36 76 76 76C82.64 76 88 70.64 88 64C88 57.36 82.64 52 76 52ZM76 68C73.8 68 72 66.2 72 64C72 61.8 73.8 60 76 60C78.2 60 80 61.8 80 64C80 66.2 78.2 68 76 68Z" fill="black"/>
</g>
<defs>
<clipPath id="clip0_117924_90">
<rect width="96" height="96" fill="white"/>
</clipPath>
</defs>
</svg>
